<svg width="90" height="52" viewBox="0 0 90 52" fill="none" xmlns="http://www.w3.org/2000/svg">
<path d="M0.583242 12.6688V10.8357H6.86351V12.6688L5.23876 12.9812V17.3555H11.4253V12.9812L9.80055 12.6688V10.8357H11.4253H14.4561H16.0808V12.6688L14.4561 12.9812V23.8649L16.0808 24.1774V26H9.80055V24.1774L11.4253 23.8649V19.6989H5.23876V23.8649L6.86351 24.1774V26H0.583242V24.1774L2.19757 23.8649V12.9812L0.583242 12.6688ZM17.341 20.2613C17.341 18.581 17.8097 17.2062 18.7471 16.137C19.6914 15.0607 20.9932 14.5226 22.6527 14.5226C24.3191 14.5226 25.621 15.0573 26.5583 16.1265C27.5026 17.1958 27.9748 18.5741 27.9748 20.2613V20.48C27.9748 22.1742 27.5026 23.5559 26.5583 24.6252C25.621 25.6875 24.3261 26.2187 22.6735 26.2187C21.0002 26.2187 19.6914 25.6875 18.7471 24.6252C17.8097 23.5559 17.341 22.1742 17.341 20.48V20.2613ZM20.3822 20.48C20.3822 21.5076 20.5628 22.3339 20.9238 22.9588C21.2849 23.5768 21.8681 23.8857 22.6735 23.8857C23.4581 23.8857 24.031 23.5733 24.392 22.9484C24.76 22.3235 24.944 21.5007 24.944 20.48V20.2613C24.944 19.2615 24.76 18.4456 24.392 17.8138C24.024 17.1819 23.4443 16.866 22.6527 16.866C21.8612 16.866 21.2849 17.1819 20.9238 17.8138C20.5628 18.4456 20.3822 19.2615 20.3822 20.2613V20.48ZM28.7663 11.5856V9.75254H33.4323V23.8649L34.9008 24.1774V26H28.9226V24.1774L30.3911 23.8649V11.898L28.7663 11.5856ZM40.3895 11.9709V14.7309H42.3684V16.866H40.3895V22.6047C40.3895 23.0421 40.4798 23.3546 40.6603 23.5421C40.8408 23.7295 41.0839 23.8233 41.3894 23.8233C41.5977 23.8233 41.7782 23.8163 41.9309 23.8024C42.0906 23.7816 42.2677 23.7504 42.4621 23.7087L42.7225 25.9063C42.3823 26.0104 42.0455 26.0868 41.7122 26.1354C41.3789 26.1909 41.0179 26.2187 40.6291 26.2187C39.5806 26.2187 38.7717 25.9306 38.2024 25.3543C37.64 24.778 37.3587 23.8649 37.3587 22.6151V16.866H35.7028V14.7309H37.3587V11.9709H40.3895ZM5.08594 43.0078L8.33594 33.625H9.97656L5.75781 45H4.42969L0.21875 33.625H1.85156L5.08594 43.0078ZM12.8516 45H11.4062V36.5469H12.8516V45ZM11.2891 34.3047C11.2891 34.0703 11.3594 33.8724 11.5 33.7109C11.6458 33.5495 11.8594 33.4688 12.1406 33.4688C12.4219 33.4688 12.6354 33.5495 12.7812 33.7109C12.9271 33.8724 13 34.0703 13 34.3047C13 34.5391 12.9271 34.7344 12.7812 34.8906C12.6354 35.0469 12.4219 35.125 12.1406 35.125C11.8594 35.125 11.6458 35.0469 11.5 34.8906C11.3594 34.7344 11.2891 34.5391 11.2891 34.3047ZM16.7422 45H15.2969V33H16.7422V45ZM20.6328 45H19.1875V33H20.6328V45ZM28.1719 45C28.0885 44.8333 28.0208 44.5365 27.9688 44.1094C27.2969 44.8073 26.4948 45.1562 25.5625 45.1562C24.7292 45.1562 24.0443 44.9219 23.5078 44.4531C22.9766 43.9792 22.7109 43.3802 22.7109 42.6562C22.7109 41.776 23.0443 41.0938 23.7109 40.6094C24.3828 40.1198 25.3255 39.875 26.5391 39.875H27.9453V39.2109C27.9453 38.7057 27.7943 38.3047 27.4922 38.0078C27.1901 37.7057 26.7448 37.5547 26.1562 37.5547C25.6406 37.5547 25.2083 37.6849 24.8594 37.9453C24.5104 38.2057 24.3359 38.5208 24.3359 38.8906H22.8828C22.8828 38.4688 23.0312 38.0625 23.3281 37.6719C23.6302 37.276 24.0365 36.9635 24.5469 36.7344C25.0625 36.5052 25.6276 36.3906 26.2422 36.3906C27.2161 36.3906 27.9792 36.6354 28.5312 37.125C29.0833 37.6094 29.3698 38.2786 29.3906 39.1328V43.0234C29.3906 43.7995 29.4896 44.4167 29.6875 44.875V45H28.1719ZM25.7734 43.8984C26.2266 43.8984 26.6562 43.7812 27.0625 43.5469C27.4688 43.3125 27.763 43.0078 27.9453 42.6328V40.8984H26.8125C25.0417 40.8984 24.1562 41.4167 24.1562 42.4531C24.1562 42.9062 24.3073 43.2604 24.6094 43.5156C24.9115 43.7708 25.2995 43.8984 25.7734 43.8984ZM31.3125 40.7031C31.3125 39.3854 31.6172 38.3385 32.2266 37.5625C32.8359 36.7812 33.6432 36.3906 34.6484 36.3906C35.6797 36.3906 36.4844 36.7552 37.0625 37.4844L37.1328 36.5469H38.4531V44.7969C38.4531 45.8906 38.1276 46.7526 37.4766 47.3828C36.8307 48.013 35.9609 48.3281 34.8672 48.3281C34.2578 48.3281 33.6615 48.1979 33.0781 47.9375C32.4948 47.6771 32.0495 47.3203 31.7422 46.8672L32.4922 46C33.112 46.7656 33.8698 47.1484 34.7656 47.1484C35.4688 47.1484 36.0156 46.9505 36.4062 46.5547C36.8021 46.1589 37 45.6016 37 44.8828V44.1562C36.4219 44.8229 35.6328 45.1562 34.6328 45.1562C33.6432 45.1562 32.8411 44.7578 32.2266 43.9609C31.6172 43.1641 31.3125 42.0781 31.3125 40.7031ZM32.7656 40.8672C32.7656 41.8203 32.9609 42.5703 33.3516 43.1172C33.7422 43.6589 34.2891 43.9297 34.9922 43.9297C35.9036 43.9297 36.5729 43.5156 37 42.6875V38.8281C36.5573 38.0208 35.8932 37.6172 35.0078 37.6172C34.3047 37.6172 33.7552 37.8906 33.3594 38.4375C32.9635 38.9844 32.7656 39.7943 32.7656 40.8672ZM44.1484 45.1562C43.0026 45.1562 42.0703 44.7812 41.3516 44.0312C40.6328 43.276 40.2734 42.2682 40.2734 41.0078V40.7422C40.2734 39.9036 40.4323 39.1562 40.75 38.5C41.0729 37.8385 41.5208 37.3229 42.0938 36.9531C42.6719 36.5781 43.2969 36.3906 43.9688 36.3906C45.0677 36.3906 45.9219 36.7526 46.5312 37.4766C47.1406 38.2005 47.4453 39.237 47.4453 40.5859V41.1875H41.7188C41.7396 42.0208 41.9818 42.6953 42.4453 43.2109C42.9141 43.7214 43.5078 43.9766 44.2266 43.9766C44.737 43.9766 45.1693 43.8724 45.5234 43.6641C45.8776 43.4557 46.1875 43.1797 46.4531 42.8359L47.3359 43.5234C46.6276 44.612 45.5651 45.1562 44.1484 45.1562ZM43.9688 37.5781C43.3854 37.5781 42.8958 37.7917 42.5 38.2188C42.1042 38.6406 41.8594 39.2344 41.7656 40H46V39.8906C45.9583 39.1562 45.7604 38.5885 45.4062 38.1875C45.0521 37.7812 44.5729 37.5781 43.9688 37.5781ZM62.0625 45H60.5547V39.7422H54.8203V45H53.3203V33.625H54.8203V38.5156H60.5547V33.625H62.0625V45ZM69.7188 45C69.6354 44.8333 69.5677 44.5365 69.5156 44.1094C68.8438 44.8073 68.0417 45.1562 67.1094 45.1562C66.276 45.1562 65.5911 44.9219 65.0547 44.4531C64.5234 43.9792 64.2578 43.3802 64.2578 42.6562C64.2578 41.776 64.5911 41.0938 65.2578 40.6094C65.9297 40.1198 66.8724 39.875 68.0859 39.875H69.4922V39.2109C69.4922 38.7057 69.3411 38.3047 69.0391 38.0078C68.737 37.7057 68.2917 37.5547 67.7031 37.5547C67.1875 37.5547 66.7552 37.6849 66.4062 37.9453C66.0573 38.2057 65.8828 38.5208 65.8828 38.8906H64.4297C64.4297 38.4688 64.5781 38.0625 64.875 37.6719C65.1771 37.276 65.5833 36.9635 66.0938 36.7344C66.6094 36.5052 67.1745 36.3906 67.7891 36.3906C68.763 36.3906 69.526 36.6354 70.0781 37.125C70.6302 37.6094 70.9167 38.2786 70.9375 39.1328V43.0234C70.9375 43.7995 71.0365 44.4167 71.2344 44.875V45H69.7188ZM67.3203 43.8984C67.7734 43.8984 68.2031 43.7812 68.6094 43.5469C69.0156 43.3125 69.3099 43.0078 69.4922 42.6328V40.8984H68.3594C66.5885 40.8984 65.7031 41.4167 65.7031 42.4531C65.7031 42.9062 65.8542 43.2604 66.1562 43.5156C66.4583 43.7708 66.8464 43.8984 67.3203 43.8984ZM74.7734 45H73.3281V33H74.7734V45ZM78.6641 45H77.2188V33H78.6641V45Z" fill="white"/>
</svg>
