<svg width="409" height="253" viewBox="0 0 409 253" fill="none" xmlns="http://www.w3.org/2000/svg">
<g clip-path="url(#clip0)">
<path d="M8.66184 166.677C11.2475 171.472 16.7353 173.53 16.7353 173.53C16.7353 173.53 18.0308 167.814 15.4451 163.019C12.8594 158.223 7.37167 156.165 7.37167 156.165C7.37167 156.165 6.07614 161.881 8.66184 166.677Z" fill="#3F3D56"/>
<path d="M10.4391 165.099C15.1073 167.907 16.9052 173.486 16.9052 173.486C16.9052 173.486 11.1344 174.511 6.46612 171.703C1.79788 168.894 0 163.315 0 163.315C0 163.315 5.77082 162.29 10.4391 165.099Z" fill="#4D8FBF"/>
<path d="M254.824 87.1197C254.824 125.462 232.03 138.85 203.913 138.85C175.796 138.85 153.003 125.462 153.003 87.1197C153.003 48.7774 203.913 1.52588e-05 203.913 1.52588e-05C203.913 1.52588e-05 254.824 48.7774 254.824 87.1197Z" fill="#F2F2F2"/>
<path d="M202.059 132.985L202.58 100.895L224.279 61.1967L202.662 95.8615L202.896 81.4331L217.851 52.7114L202.958 77.6148L203.38 51.6644L219.394 28.7984L203.446 47.5837L203.709 0L202.054 62.9924L202.19 60.3939L185.908 35.4712L201.929 65.3822L200.412 94.3641L200.367 93.595L181.597 67.3679L200.31 96.3125L200.12 99.9372L200.086 99.9917L200.102 100.289L196.253 173.819H201.395L202.012 135.839L220.68 106.966L202.059 132.985Z" fill="#3F3D56"/>
<path d="M397.168 87.1197C397.168 125.462 374.375 138.85 346.258 138.85C318.141 138.85 295.347 125.462 295.347 87.1197C295.347 48.7774 346.258 1.52588e-05 346.258 1.52588e-05C346.258 1.52588e-05 397.168 48.7774 397.168 87.1197Z" fill="#F2F2F2"/>
<path d="M344.403 132.985L344.924 100.895L366.624 61.1967L345.006 95.8615L345.241 81.4331L360.196 52.7114L345.303 77.6148L345.724 51.6644L361.738 28.7984L345.791 47.5837L346.054 0L344.399 62.9924L344.535 60.3939L328.253 35.4712L344.274 65.3822L342.756 94.3641L342.711 93.595L323.941 67.3679L342.654 96.3125L342.465 99.9372L342.431 99.9917L342.446 100.289L338.597 173.819H343.74L344.357 135.839L363.024 106.966L344.403 132.985Z" fill="#3F3D56"/>
<path d="M39.1593 117.89C49.9148 117.89 58.6339 109.17 58.6339 98.4144C58.6339 87.6585 49.9148 78.9392 39.1593 78.9392C28.4037 78.9392 19.6846 87.6585 19.6846 98.4144C19.6846 109.17 28.4037 117.89 39.1593 117.89Z" fill="#FF6584"/>
<path d="M14.4506 135.046L11.5919 130.281L38.2738 107.41H106.885V114.081L82.1087 140.763L53.5207 146.481L14.4506 135.046Z" fill="#3F3D56"/>
<path d="M118.695 120.832V105.922H109.713V110.624L106.885 107.41L84.0144 130.281L80.2026 134.093L75.4382 153.152L84.0144 174.117H127.849V131.234L118.695 120.832Z" fill="#CCCCCC"/>
<path d="M84.0144 130.281H11.5918V174.117H84.0144V130.281Z" fill="#F2F2F2"/>
<path d="M74.0087 144.099H58.7618V157.44H74.0087V144.099Z" fill="#3F3D56"/>
<path d="M52.5678 143.622H39.2268V174.117H52.5678V143.622Z" fill="#CCCCCC"/>
<path d="M23.9798 148.387V143.623H18.2623V148.387H23.5033H23.9798Z" fill="#3F3D56"/>
<path d="M23.5033 152.199H18.2623V156.964H23.9798V152.199H23.5033Z" fill="#3F3D56"/>
<path d="M33.5092 143.622H27.7916V148.387H33.5092V143.622Z" fill="#3F3D56"/>
<path d="M33.5092 152.199H27.7916V156.964H33.5092V152.199Z" fill="#3F3D56"/>
<path d="M104.503 148.864V144.099H98.7848V148.864H104.026H104.503Z" fill="#3F3D56"/>
<path d="M104.026 152.676H98.7848V157.44H104.503V152.676H104.026Z" fill="#3F3D56"/>
<path d="M114.032 144.099H108.314V148.864H114.032V144.099Z" fill="#3F3D56"/>
<path d="M114.032 152.676H108.314V157.44H114.032V152.676Z" fill="#3F3D56"/>
<path d="M151.958 135.02L149.099 130.255L175.781 107.384H244.392V114.055L219.616 140.738L191.028 146.455L151.958 135.02Z" fill="#3F3D56"/>
<path d="M256.203 120.806V105.896H247.22V110.598L244.392 107.384L221.522 130.255L217.71 134.067L212.945 153.126L221.522 174.091H265.356V131.208L256.203 120.806Z" fill="#CCCCCC"/>
<path d="M221.522 130.255H149.099V174.091H221.522V130.255Z" fill="#F2F2F2"/>
<path d="M211.516 144.073H196.269V157.414H211.516V144.073Z" fill="#3F3D56"/>
<path d="M190.075 143.596H176.734V174.091H190.075V143.596Z" fill="#CCCCCC"/>
<path d="M161.487 148.361V143.596H155.77V148.361H161.011H161.487Z" fill="#3F3D56"/>
<path d="M161.011 152.173H155.77V156.938H161.487V152.173H161.011Z" fill="#3F3D56"/>
<path d="M171.016 143.596H165.299V148.361H171.016V143.596Z" fill="#3F3D56"/>
<path d="M171.016 152.173H165.299V156.938H171.016V152.173Z" fill="#3F3D56"/>
<path d="M242.01 148.837V144.073H236.292V148.837H241.533H242.01Z" fill="#3F3D56"/>
<path d="M241.533 152.649H236.292V157.414H242.01V152.649H241.533Z" fill="#3F3D56"/>
<path d="M251.539 144.073H245.821V148.838H251.539V144.073Z" fill="#3F3D56"/>
<path d="M251.539 152.649H245.821V157.414H251.539V152.649Z" fill="#3F3D56"/>
<path d="M285.338 135.02L282.48 130.255L309.162 107.384H377.773V114.055L352.996 140.738L324.408 146.455L285.338 135.02Z" fill="#3F3D56"/>
<path d="M389.583 120.806V105.896H380.6V110.598L377.772 107.384L354.902 130.255L351.091 134.067L346.326 153.126L354.902 174.091H398.737V131.208L389.583 120.806Z" fill="#CCCCCC"/>
<path d="M354.902 130.255H282.48V174.091H354.902V130.255Z" fill="#F2F2F2"/>
<path d="M344.897 144.073H329.65V157.414H344.897V144.073Z" fill="#3F3D56"/>
<path d="M323.456 143.596H310.115V174.091H323.456V143.596Z" fill="#CCCCCC"/>
<path d="M294.868 148.361V143.596H289.15V148.361H294.391H294.868Z" fill="#3F3D56"/>
<path d="M294.391 152.173H289.15V156.938H294.868V152.173H294.391Z" fill="#3F3D56"/>
<path d="M304.397 143.596H298.679V148.361H304.397V143.596Z" fill="#3F3D56"/>
<path d="M304.397 152.173H298.679V156.938H304.397V152.173Z" fill="#3F3D56"/>
<path d="M375.39 148.837V144.073H369.673V148.837H374.914H375.39Z" fill="#3F3D56"/>
<path d="M374.914 152.649H369.673V157.414H375.39V152.649H374.914Z" fill="#3F3D56"/>
<path d="M384.92 144.073H379.202V148.838H384.92V144.073Z" fill="#3F3D56"/>
<path d="M384.92 152.649H379.202V157.414H384.92V152.649Z" fill="#3F3D56"/>
<path d="M272.886 145.789H272.169V174.115H272.886V145.789Z" fill="#3F3D56"/>
<path d="M279.504 149.399C279.55 159.304 272.581 167.366 272.581 167.366C272.581 167.366 265.539 159.369 265.493 149.464C265.447 139.559 272.416 131.497 272.416 131.497C272.416 131.497 279.458 139.494 279.504 149.399Z" fill="#4D8FBF"/>
<path d="M142.374 145.072H141.657V173.398H142.374V145.072Z" fill="#3F3D56"/>
<path d="M148.992 148.682C149.038 158.587 142.069 166.649 142.069 166.649C142.069 166.649 135.027 158.651 134.981 148.747C134.935 138.842 141.904 130.78 141.904 130.78C141.904 130.78 148.946 138.777 148.992 148.682Z" fill="#4D8FBF"/>
<path opacity="0.1" d="M148.992 148.682C149.038 158.587 142.069 166.649 142.069 166.649C142.069 166.649 135.027 158.651 134.981 148.747C134.935 138.842 141.904 130.78 141.904 130.78C141.904 130.78 148.946 138.777 148.992 148.682Z" fill="black"/>
<path d="M133.052 145.072H132.334V173.398H133.052V145.072Z" fill="#3F3D56"/>
<path d="M139.67 148.682C139.715 158.587 132.747 166.649 132.747 166.649C132.747 166.649 125.704 158.651 125.659 148.747C125.613 138.842 132.582 130.78 132.582 130.78C132.582 130.78 139.624 138.777 139.67 148.682Z" fill="#4D8FBF"/>
<path d="M409 173.4H1.32886V174.117H409V173.4Z" fill="#3F3D56"/>
<path d="M93.6272 151.944C93.6272 151.944 93.9945 152.365 93.3652 153.179C92.7359 153.994 93.244 155.761 94.4396 155.806C95.6352 155.851 96.2149 156.352 95.9267 157.011C95.6385 157.671 95.2921 159.238 96.5941 159C97.8961 158.762 98.3076 159.28 98.0771 159.678C97.8466 160.077 98.6577 158.886 98.6577 158.886C98.6577 158.886 99.3833 159.967 100.274 159.21C101.164 158.454 101.518 151.594 99.7029 151.478C97.8874 151.362 93.6272 151.944 93.6272 151.944Z" fill="#2F2E41"/>
<path d="M102.831 184.563L103.244 187.459H105.106L104.486 184.149L102.831 184.563Z" fill="#FFB8B8"/>
<path d="M105.313 185.701C105.313 185.701 107.795 187.976 107.175 188.183C106.554 188.39 104.279 190.872 103.865 191.079C103.495 191.264 99.5211 192.527 100.142 191.079C100.598 190.138 101.316 189.347 102.21 188.804L102.624 186.321L105.313 185.701Z" fill="#F2F2F2"/>
<path opacity="0.1" d="M105.313 185.701C105.313 185.701 107.795 187.976 107.175 188.183C106.554 188.39 104.279 190.872 103.865 191.079C103.495 191.264 99.5211 192.527 100.142 191.079C100.598 190.138 101.316 189.347 102.21 188.804L102.624 186.321L105.313 185.701Z" fill="black"/>
<path d="M105.313 182.391L105.727 185.287H107.589L106.968 181.977L105.313 182.391Z" fill="#FFB8B8"/>
<path d="M97.5341 174.703L100.245 165.739C100.245 165.739 95.6943 161.601 98.7972 160.36C101.9 159.119 102.727 165.325 102.727 165.325L101.693 176.082H97.556L97.5341 174.703Z" fill="#FFB8B8"/>
<path d="M103.865 168.117C103.865 168.117 98.5189 174.975 99.3303 175.994C100.142 177.013 101.59 183.218 101.59 183.218C101.59 183.218 101.383 185.701 102.21 185.701C103.038 185.701 105.106 185.287 105.106 184.666C105.106 184.046 103.245 176.185 103.245 176.185L108.623 169.152L103.865 168.117Z" fill="#4D8FBF"/>
<path d="M104.279 168.531L109.657 165.635C109.657 165.635 113.381 167.497 112.346 169.152C111.312 170.807 106.554 175.151 106.554 175.151C106.554 175.151 108.002 182.184 107.795 182.391C107.589 182.598 105.313 183.425 104.693 183.218C104.072 183.012 100.762 174.944 101.59 174.53C102.417 174.116 105.106 169.772 105.106 169.772L104.279 168.531Z" fill="#4D8FBF"/>
<path d="M89.592 247.677C89.592 247.677 93.3154 249.952 93.7292 249.952C94.1429 249.952 99.728 251.4 97.2457 252.435C94.7634 253.469 85.248 252.021 85.4549 251.4C85.6617 250.78 85.4549 247.056 85.8686 247.056C86.2823 247.056 89.592 247.677 89.592 247.677Z" fill="#2F2E41"/>
<path d="M93.7292 247.346C93.7292 247.346 97.4526 249.621 97.8663 249.621C98.2801 249.621 103.865 251.069 101.383 252.104C98.9006 253.138 89.3852 251.69 89.5921 251.069C89.7989 250.449 89.5921 246.725 90.0058 246.725C90.4195 246.725 93.7292 247.346 93.7292 247.346Z" fill="#2F2E41"/>
<path d="M89.4403 204.208C89.4403 204.208 90.4194 209.821 91.4537 212.096C92.488 214.372 91.2468 225.129 90.6263 226.784C90.0057 228.439 84.0068 248.09 85.8686 248.297C87.7303 248.504 91.4537 248.297 91.4537 248.297L97.4525 229.473L96.4183 204.236L89.4403 204.208Z" fill="#575A88"/>
<path opacity="0.1" d="M89.4403 204.208C89.4403 204.208 90.4194 209.821 91.4537 212.096C92.488 214.372 91.2468 225.129 90.6263 226.784C90.0057 228.439 84.0068 248.09 85.8686 248.297C87.7303 248.504 91.4537 248.297 91.4537 248.297L97.4525 229.473L96.4183 204.236L89.4403 204.208Z" fill="black"/>
<path d="M91.04 203.698C91.04 203.698 91.8675 209.283 93.7292 210.524C95.5909 211.765 94.9703 213.007 94.9703 213.007L94.1429 223.97C94.1429 223.97 86.0755 243.829 88.5578 246.311C91.0401 248.794 93.3155 247.759 94.3498 247.553C95.3841 247.346 97.2458 243.002 96.2115 241.76C95.1772 240.519 98.2801 233.072 99.1075 231.831C99.935 230.59 99.1075 228.935 100.142 228.521C101.176 228.108 103.452 225.418 103.452 223.557C103.452 221.695 106.348 201.836 104.486 200.595C102.624 199.354 90.6906 203.156 90.6906 203.156L91.04 203.698Z" fill="#575A88"/>
<path d="M87.1097 174.737C89.6231 174.737 91.6606 172.699 91.6606 170.186C91.6606 167.673 89.6231 165.635 87.1097 165.635C84.5963 165.635 82.5588 167.673 82.5588 170.186C82.5588 172.699 84.5963 174.737 87.1097 174.737Z" fill="#FFB8B8"/>
<path d="M97.4525 157.361C99.5089 157.361 101.176 155.693 101.176 153.637C101.176 151.581 99.5089 149.914 97.4525 149.914C95.3962 149.914 93.7291 151.581 93.7291 153.637C93.7291 155.693 95.3962 157.361 97.4525 157.361Z" fill="#FFB8B8"/>
<path d="M90.2126 170.186C90.2126 170.186 92.6949 174.737 93.936 174.737C95.1772 174.737 88.9715 179.495 88.9715 179.495C88.9715 179.495 86.9029 173.496 86.4892 173.289C86.0755 173.082 90.2126 170.186 90.2126 170.186Z" fill="#FFB8B8"/>
<path d="M91.0401 174.323C91.0401 174.323 85.6618 176.185 85.8686 176.806C86.0755 177.426 84.4206 178.874 84.4206 179.495C84.4206 180.115 84.0069 185.701 86.4892 190.252C88.9715 194.803 92.9018 198.112 91.0401 200.181C89.1784 202.25 86.2823 205.766 89.3852 205.766C92.4881 205.766 97.4526 201.215 102.003 202.87C106.554 204.525 105.52 198.319 105.52 198.319C105.52 198.319 106.141 193.562 104.899 192.113C103.658 190.665 99.3144 180.322 99.3144 179.081C99.3144 177.84 95.1772 173.082 94.1429 173.082C93.1086 173.082 91.0401 174.323 91.0401 174.323Z" fill="#8985A8"/>
<path d="M98.4869 155.913C98.4869 155.913 100.171 159.115 100.26 159.686C100.349 160.257 103.245 155.913 103.245 155.913L99.9349 153.637L98.4869 155.913Z" fill="#FFB8B8"/>
<path d="M99.1074 158.395L102.624 154.671L106.761 156.533C106.761 156.533 110.62 165.014 110.862 165.635C111.105 166.256 104.693 169.152 104.072 169.152C103.451 169.152 99.1074 162.739 99.1074 162.739C99.1074 162.739 98.0731 159.636 99.1074 158.395Z" fill="#F2F2F2"/>
<path d="M97.4524 163.359V167.083H99.935L99.1186 163.359H97.4524Z" fill="#FFB8B8"/>
<path d="M98.8689 166.152C98.5552 166.148 98.2477 166.239 97.9873 166.414C97.727 166.59 97.5261 166.84 97.4116 167.132C97.2499 167.569 97.3048 168.029 98.0731 168.221C99.728 168.635 99.9349 168.221 99.9349 168.221C99.9349 168.221 102.808 167.807 102.199 166.98C101.59 166.152 99.9349 166.152 99.9349 166.152H98.8689Z" fill="#FFB8B8"/>
<path d="M107.795 184.046C107.795 184.046 110.278 186.321 109.657 186.528C109.037 186.735 106.761 189.217 106.347 189.424C105.977 189.609 102.003 190.872 102.624 189.424C103.08 188.483 103.799 187.693 104.693 187.149L105.106 184.666L107.795 184.046Z" fill="#F2F2F2"/>
<path d="M85.4883 166.683C85.773 166.516 86.1093 166.308 86.1174 165.978C86.11 165.857 86.0674 165.741 85.9947 165.643C85.9221 165.546 85.8226 165.472 85.7085 165.431C85.479 165.351 85.236 165.319 84.9937 165.334C84.9007 165.329 84.8075 165.339 84.7173 165.362C84.4817 165.434 84.3459 165.674 84.1604 165.836C83.8662 166.042 83.5282 166.177 83.1731 166.231C82.5924 166.382 82.0355 166.612 81.5184 166.917C81.4163 166.968 81.3269 167.042 81.2566 167.132C81.1752 167.298 81.1389 167.483 81.1514 167.667C81.1047 168.369 80.6839 168.98 80.3698 169.61C80.0556 170.239 79.8493 171.023 80.218 171.622C80.3643 171.808 80.5008 172.002 80.6271 172.203C80.8884 172.747 80.5623 173.418 80.751 173.991C80.8355 174.217 80.9711 174.421 81.1471 174.585C81.5104 174.951 81.958 175.222 82.4505 175.375C82.9206 175.519 83.5038 175.616 83.6879 176.072C83.7287 176.278 83.787 176.481 83.8622 176.677C83.9462 176.777 84.0499 176.859 84.1668 176.918C84.2836 176.977 84.4113 177.011 84.5418 177.018C84.8304 177.084 85.1273 177.106 85.4223 177.082C85.5699 177.069 85.7133 177.027 85.8438 176.957C85.9744 176.887 86.0894 176.791 86.1818 176.675C86.2652 176.512 86.3685 176.36 86.4894 176.222C86.7889 175.971 87.2438 176.169 87.6285 176.103C87.7843 176.073 87.9286 176 88.0442 175.892C88.1599 175.783 88.2421 175.644 88.2813 175.49C88.2919 175.326 88.3371 175.167 88.4138 175.022C88.6527 174.716 89.2813 174.932 89.439 174.577C89.5415 174.347 89.3271 174.104 89.1198 173.96C88.7648 173.753 88.4243 173.522 88.1006 173.269C87.9398 173.14 87.8153 172.972 87.7395 172.78C87.6636 172.588 87.639 172.38 87.668 172.176C87.8104 171.576 88.5935 171.246 88.6194 170.63C88.6084 170.454 88.5551 170.282 88.4642 170.13C88.3733 169.979 88.2474 169.851 88.0969 169.758C87.7951 169.575 87.5056 169.372 87.2304 169.151C87.0449 168.971 86.9051 168.746 86.7035 168.585C86.3053 168.337 85.8448 168.207 85.3756 168.21C85.1265 168.185 84.1329 168.07 84.172 167.69C84.2045 167.375 85.2355 166.831 85.4883 166.683Z" fill="#2F2E41"/>
<path d="M99.1074 158.188C99.1074 158.188 96.832 159.015 96.832 160.05C96.832 161.084 95.7977 164.394 96.832 164.394C97.8663 164.394 99.9349 163.6 99.9349 163.6L99.1074 158.188Z" fill="#F2F2F2"/>
<path d="M98.4869 173.082C98.4869 173.082 104.486 171.014 104.693 171.014C104.899 171.014 107.795 169.359 107.589 168.738L106.761 163.566C106.761 163.566 103.451 156.74 105.727 156.74C108.002 156.74 109.243 162.118 109.243 162.118C109.243 162.118 114.208 171.427 111.519 173.496C108.83 175.564 97.6594 179.288 97.0389 178.667C96.4183 178.047 98.4869 173.082 98.4869 173.082Z" fill="#FFB8B8"/>
<path d="M104.279 159.636L105.675 160.982L103.865 162.739C103.865 162.739 101.383 161.705 101.59 162.325C101.797 162.946 103.038 164.808 103.865 164.808C104.693 164.808 108.999 162.118 109.018 161.291C109.037 160.464 106.347 157.567 105.727 157.361C105.106 157.154 104.279 159.636 104.279 159.636Z" fill="#FFB8B8"/>
<path d="M101.653 158.194C101.653 158.194 104.693 160.877 105.106 160.877C105.52 160.877 106.272 156.846 106.272 156.846C106.272 156.846 103.82 155.248 102.912 155.684C102.003 156.119 101.653 158.194 101.653 158.194Z" fill="#F2F2F2"/>
<path d="M91.04 175.564C91.04 175.564 91.04 172.668 97.2458 172.668H99.9349L98.6938 179.495L94.5566 180.736L91.04 175.564Z" fill="#8985A8"/>
<path d="M104.596 152.128C103.987 152.125 103.38 152.088 102.776 152.016C102.302 150.869 101.698 149.908 101.044 149.549C100.516 149.144 99.9291 148.822 99.3038 148.594C97.9255 148.008 95.6311 148.374 95.497 149.04C92.7848 150.336 93.4702 152.612 93.4702 152.612C93.8916 153.502 94.837 153.108 95.6391 152.704C95.7134 153.026 95.8865 153.317 96.1342 153.535C96.3818 153.754 96.6916 153.89 97.0203 153.924C98.3447 153.974 98.987 154.529 98.6677 155.259C98.3484 155.99 97.9647 157.726 99.4071 157.462C100.849 157.198 101.305 157.773 101.05 158.214C100.795 158.655 101.693 157.336 101.693 157.336C101.693 157.336 102.497 158.534 103.483 157.695C103.583 157.599 103.654 157.477 103.689 157.343C103.999 157.526 104.364 157.59 104.717 157.523C105.899 156.995 105.165 155.753 105.165 155.753C105.165 155.753 106.743 155.511 106.234 155.551C105.726 155.591 105.405 154.933 106.265 153.745C107.125 152.557 105.393 152.155 104.596 152.128Z" fill="#2F2E41"/>
<path d="M96.593 151.197L96.0042 151.001L95.4163 152.767L96.0051 152.963L96.593 151.197Z" fill="#4D8FBF"/>
<path d="M140.446 252.283H37.5424V253H140.446V252.283Z" fill="#3F3D56"/>
<path d="M361.671 218.578H258.768V219.295H361.671V218.578Z" fill="#3F3D56"/>
<path d="M334.676 154.178L340.459 153.049C340.459 153.049 341.869 148.254 343.562 148.818C345.254 149.382 342.433 154.178 342.433 154.178L334.394 157.845L334.676 154.178Z" fill="#A0616A"/>
<path d="M299.557 158.973L297.018 162.217C297.018 162.217 293.351 162.076 294.48 164.051C295.608 166.025 298.147 164.897 298.288 164.474C298.429 164.051 302.519 160.384 302.519 160.384L299.557 158.973Z" fill="#A0616A"/>
<path d="M309.924 155.236L312.039 154.107C312.039 154.107 321.066 153.402 324.451 155.659C327.836 157.915 310.206 158.197 310.206 158.197L309.924 155.236Z" fill="#4D8FBF"/>
<path d="M313.943 153.19C313.943 153.19 312.815 150.511 314.366 150.229C315.251 150.055 316.161 150.055 317.046 150.229L315.354 151.639L313.943 153.19Z" fill="#3F3D56"/>
<path opacity="0.1" d="M313.943 153.19C313.943 153.19 312.815 150.511 314.366 150.229C315.251 150.055 316.161 150.055 317.046 150.229L315.354 151.639L313.943 153.19Z" fill="black"/>
<path d="M306.186 169.41L302.096 169.128L302.801 170.398C302.801 170.398 297.159 172.09 298.993 176.886C300.281 180.114 301.838 183.228 303.647 186.195L305.481 189.721C305.481 189.721 309.289 190.285 309.43 189.157C309.571 188.028 309.43 187.464 308.725 186.9C308.078 186.317 307.675 185.511 307.596 184.643C307.596 184.079 307.737 183.515 307.314 183.233C306.891 182.951 306.75 182.528 306.75 181.681C306.75 180.835 305.199 177.732 305.199 177.732C305.199 177.732 310.135 177.591 311.687 178.86C313.238 180.13 318.316 184.925 318.316 184.925C318.596 185.219 318.834 185.552 319.021 185.913C319.303 186.477 319.303 186.759 319.867 187.041C320.431 187.323 320.008 188.451 319.867 188.592C319.726 188.734 318.316 194.375 318.316 194.375C318.316 194.375 316.764 197.055 318.457 197.196C320.149 197.337 321.7 197.478 321.842 197.196C321.998 196.805 322.187 196.428 322.406 196.068C322.829 195.363 322.406 193.811 322.406 193.811C322.406 193.811 326.496 188.592 325.226 185.348C323.957 182.104 321.277 174.77 321.277 174.77L317.187 173.078L309.712 170.398L306.186 169.41Z" fill="#2F2E41"/>
<path d="M305.904 189.016C305.904 189.016 305.058 192.26 304.776 192.401C304.494 192.542 301.391 195.222 303.506 195.645C305.622 196.068 307.173 195.927 307.596 195.504C308.02 195.08 307.879 194.657 308.584 194.516C309.289 194.375 310.558 193.952 310.417 192.965C310.276 191.977 309.571 189.298 309.148 189.016C308.725 188.733 305.904 189.016 305.904 189.016Z" fill="#2F2E41"/>
<path d="M318.174 196.209C318.174 196.209 316.905 197.196 317.61 199.03C318.315 200.863 319.303 202.838 319.303 202.838C319.303 202.838 320.431 206.364 322.265 205.8C322.594 205.683 322.888 205.481 323.115 205.215C323.343 204.949 323.497 204.628 323.562 204.284C323.691 203.785 323.712 203.263 323.624 202.754C323.536 202.246 323.34 201.762 323.049 201.335L321.983 199.735L320.854 196.773L318.174 196.209Z" fill="#2F2E41"/>
<path d="M314.649 154.742C314.649 154.742 312.956 154.601 312.674 155.024C312.392 155.447 311.123 161.089 312.674 161.653C314.225 162.217 318.88 163.205 319.585 162.499C320.29 161.794 320.572 155.588 320.572 155.588L314.649 154.742Z" fill="#A0616A"/>
<path opacity="0.1" d="M314.649 154.742C314.649 154.742 312.956 154.601 312.674 155.024C312.392 155.447 311.123 161.089 312.674 161.653C314.225 162.217 318.88 163.205 319.585 162.499C320.29 161.794 320.572 155.588 320.572 155.588L314.649 154.742Z" fill="black"/>
<path d="M312.11 159.396C312.11 159.396 314.084 161.371 315.354 161.089C316.623 160.807 319.585 159.537 319.867 158.973C320.149 158.409 323.675 158.268 323.675 158.268L319.867 168.846L322.547 177.732C322.547 177.732 324.098 175.898 319.867 175.757C315.636 175.616 309.994 173.501 309.007 170.68C309.007 170.68 302.801 169.834 302.519 169.693C302.237 169.552 303.224 168.705 303.224 168.705L307.314 167.577L310.276 163.769L312.11 159.396Z" fill="#F2F2F2"/>
<path d="M313.379 155.024C313.379 155.024 314.084 154.037 313.379 154.037C312.249 154.013 311.118 154.06 309.994 154.178C309.289 154.319 306.609 153.614 306.327 154.46C306.045 155.306 306.045 160.525 306.609 160.948C307.173 161.371 307.455 161.371 306.75 162.217C306.045 163.064 304.352 165.884 304.776 166.872C305.199 167.859 300.262 168.141 300.968 169.269C301.159 169.592 301.426 169.863 301.745 170.06C302.065 170.256 302.427 170.372 302.801 170.398C302.801 170.398 303.083 168.141 304.776 169.269C306.468 170.398 308.725 173.219 310.558 171.385C312.392 169.552 313.097 167.859 313.238 165.461C313.386 163.67 313.291 161.867 312.956 160.102C312.674 158.691 313.379 155.024 313.379 155.024Z" fill="#4D8FBF"/>
<path d="M320.713 157.704C320.713 157.704 321.841 158.691 320.713 161.089C319.585 163.487 316.623 169.128 319.021 172.796C321.418 176.463 322.406 177.45 321.842 178.155C321.498 178.602 321.301 179.144 321.277 179.707L322.829 179.142C322.999 177.989 323.282 176.855 323.675 175.757C324.239 174.347 322.547 170.116 322.547 170.116L323.111 164.615C323.111 164.615 325.368 161.089 325.65 160.948C325.932 160.807 325.085 154.742 325.085 154.742C325.085 154.742 323.675 154.319 322.97 154.742C322.265 155.165 320.713 157.704 320.713 157.704Z" fill="#4D8FBF"/>
<path d="M307.173 154.601H306.327L300.544 157.563C300.544 157.563 300.121 155.729 299.839 156.152C299.557 156.575 299.698 157.704 298.993 157.986C298.288 158.268 297.865 158.691 298.993 159.255C300.121 159.819 300.262 159.396 300.262 160.384C300.262 161.371 301.109 161.512 301.814 161.23C302.519 160.948 302.66 160.807 303.365 161.089C304.07 161.371 303.647 161.794 304.635 161.371C305.622 160.948 308.161 161.089 308.161 161.089L307.173 154.601Z" fill="#4D8FBF"/>
<path d="M324.098 155.024L325.085 154.742C325.085 154.742 328.047 155.024 328.752 155.024C329.458 155.024 330.163 154.883 330.586 154.883C331.009 154.883 333.125 154.601 333.407 154.319C333.689 154.037 334.958 153.331 335.099 153.755C335.24 154.178 336.792 156.858 335.381 158.127C333.971 159.396 333.689 158.832 332.843 159.396C331.996 159.961 325.226 161.089 325.085 160.948C324.944 160.807 324.098 155.024 324.098 155.024Z" fill="#4D8FBF"/>
<path d="M318.316 160.384C320.652 160.384 322.547 158.489 322.547 156.152C322.547 153.815 320.652 151.921 318.316 151.921C315.979 151.921 314.084 153.815 314.084 156.152C314.084 158.489 315.979 160.384 318.316 160.384Z" fill="#A0616A"/>
<path d="M315.202 156.323C315.25 156.415 315.28 156.515 315.289 156.619C315.346 156.859 315.481 157.073 315.673 157.228C315.865 157.383 316.103 157.469 316.35 157.473C316.329 157.564 316.329 157.658 316.347 157.749C316.366 157.84 316.403 157.926 316.458 158.002C316.512 158.077 316.581 158.141 316.662 158.188C316.742 158.235 316.831 158.264 316.924 158.274C317.21 157.908 317.423 157.49 317.552 157.043C317.584 156.868 317.657 156.703 317.765 156.561C317.934 156.419 318.146 156.339 318.367 156.334C319.493 156.189 320.626 156.105 321.761 156.082C321.915 156.093 322.069 156.061 322.207 155.99C322.526 155.785 322.419 155.289 322.218 154.968C321.821 154.339 321.218 153.868 320.511 153.636C319.997 153.498 319.471 153.411 318.94 153.376C318.236 153.263 317.527 153.19 316.816 153.155C316.099 153.122 315.389 153.312 314.784 153.699C314.36 153.997 313.664 154.835 314.005 155.364C314.059 155.448 314.231 155.49 314.305 155.576C314.404 155.694 314.405 155.871 314.518 155.978C314.707 156.155 315.05 156.099 315.202 156.323Z" fill="#2F2E41"/>
<path d="M318.315 149.1C318.315 149.1 313.52 150.793 313.943 153.19C314.366 155.588 315.636 158.409 318.315 158.268C320.995 158.127 322.406 155.21 322.406 155.21L321.7 151.216C321.7 151.216 319.021 149.1 318.315 149.1Z" fill="#3F3D56"/>
<path d="M317.71 157.564C317.71 157.564 319.596 155.518 320.545 156.705C320.545 156.705 320.502 156.646 317.71 157.564Z" fill="#2F2E41"/>
<path d="M321.27 209.864C318.742 209.864 315.614 209.026 312.565 205.999C305.103 198.587 298.013 197.844 297.943 197.837L297.969 197.556C298.041 197.563 305.231 198.317 312.764 205.799C316.635 209.643 320.631 209.879 323.301 209.399C325.065 209.079 326.744 208.402 328.237 207.41L328.404 207.637C326.879 208.652 325.164 209.346 323.362 209.675C322.672 209.8 321.972 209.863 321.27 209.864Z" fill="#2F2E41"/>
<path d="M301.743 203.755C302.678 203.755 303.436 202.997 303.436 202.062C303.436 201.127 302.678 200.37 301.743 200.37C300.809 200.37 300.051 201.127 300.051 202.062C300.051 202.997 300.809 203.755 301.743 203.755Z" fill="#2F2E41"/>
<path d="M313.732 211.653C314.666 211.653 315.424 210.895 315.424 209.961C315.424 209.026 314.666 208.268 313.732 208.268C312.797 208.268 312.039 209.026 312.039 209.961C312.039 210.895 312.797 211.653 313.732 211.653Z" fill="#2F2E41"/>
</g>
<defs>
<clipPath id="clip0">
<rect width="409" height="253" fill="white"/>
</clipPath>
</defs>
</svg>
