<svg width="409" height="289" viewBox="0 0 409 289" fill="none" xmlns="http://www.w3.org/2000/svg">
<g clip-path="url(#clip0)">
<path opacity="0.2" d="M123.356 19.2534C118.324 19.9102 112.855 21.0158 109.529 25.4177C105.597 30.6217 106.124 38.5318 107.905 45.12C109.687 51.7082 112.502 58.1302 112.473 65.0301C112.394 75.9994 104.912 85.3102 96.3953 90.2192C87.879 95.1281 78.2664 96.7118 69.0733 99.5757C60.4991 102.26 52.2994 106.021 44.6703 110.769C38.1969 114.789 31.6861 120.043 29.0951 127.974C24.8473 140.98 32.6619 154.784 40.381 165.462C64.049 198.204 94.2195 229.619 131.1 232.799C158.651 235.156 186.23 221.206 213.481 226.323C226.001 228.667 237.664 234.911 249.415 240.41C261.166 245.909 273.528 250.801 286.196 250.178C298.865 249.554 312.003 242.364 317.492 229.191C320.735 221.406 321.063 212.378 324.061 204.464C333.246 180.185 361.872 176.244 378.481 157.972C387.201 148.374 392.183 135.194 396.336 122.134C403.041 100.885 408.07 78.4892 406.949 55.8981C406.459 46.0635 404.624 35.8507 399.172 28.2608C395.206 22.7366 389.671 19.0705 384.265 15.5249C371.958 7.4528 358.745 -0.881203 344.606 0.0789733C336.46 0.631802 328.753 4.26052 320.98 7.10364C306.173 12.5072 290.726 15.1841 275.359 17.8235C249.968 22.188 224.211 26.5524 198.475 24.3743C187.11 23.4059 176.377 19.5402 165.195 17.9565C151.596 16.032 136.901 17.4868 123.356 19.2534Z" fill="#98C1D9"/>
<path opacity="0.5" d="M328.446 86.445C337.16 86.445 344.224 79.3733 344.224 70.6499C344.224 61.9265 337.16 54.8548 328.446 54.8548C319.731 54.8548 312.667 61.9265 312.667 70.6499C312.667 79.3733 319.731 86.445 328.446 86.445Z" fill="#98C1D9"/>
<path d="M278.755 126.411H134.368L142.619 100.993H147.041L147.925 107.585H262.254L262.844 100.993H268.146L278.755 126.411Z" fill="#98C1D9"/>
<path opacity="0.2" d="M278.755 126.411H134.368L142.619 100.993H147.041L147.925 107.585H262.254L262.844 100.993H268.146L278.755 126.411Z" fill="black"/>
<path d="M288.775 132.06H121.404L117.277 121.705H292.312L288.775 132.06Z" fill="#98C1D9"/>
<path d="M283.472 138.652H125.528L121.405 132.06H288.775L283.472 138.652Z" fill="#98C1D9"/>
<path d="M283.468 136.769H125.528V144.301H283.468V136.769Z" fill="#98C1D9"/>
<path d="M295.846 156.538H116.098V184.782H295.846V156.538Z" fill="#98C1D9"/>
<path opacity="0.2" d="M295.846 156.538H116.098V184.782H295.846V156.538Z" fill="black"/>
<path d="M409 251.62L0 248.798L11.7883 181.956H400.16L409 251.62Z" fill="#98C1D9"/>
<g opacity="0.2">
<path opacity="0.2" d="M115.849 230.912H121.072C122.724 230.912 124.308 231.569 125.477 232.738C126.645 233.907 127.301 235.493 127.301 237.147V249.741H109.62V237.147C109.62 235.493 110.277 233.907 111.445 232.738C112.613 231.569 114.197 230.912 115.849 230.912Z" fill="black"/>
<path opacity="0.2" d="M154.154 230.912H159.377C161.029 230.912 162.613 231.569 163.781 232.738C164.949 233.907 165.606 235.493 165.606 237.147V249.741H147.925V237.147C147.925 235.493 148.581 233.907 149.749 232.738C150.917 231.569 152.502 230.912 154.154 230.912Z" fill="black"/>
<path opacity="0.2" d="M201.888 230.912H207.112C208.764 230.912 210.348 231.569 211.516 232.738C212.684 233.907 213.34 235.493 213.34 237.147V249.741H195.66V237.147C195.66 235.493 196.316 233.907 197.484 232.738C198.652 231.569 200.236 230.912 201.888 230.912Z" fill="black"/>
<path opacity="0.2" d="M251.392 230.912H256.611C258.263 230.912 259.847 231.569 261.015 232.738C262.184 233.907 262.84 235.493 262.84 237.147V249.741H245.163V237.147C245.163 235.493 245.82 233.907 246.988 232.738C248.156 231.569 249.74 230.912 251.392 230.912Z" fill="black"/>
<path opacity="0.2" d="M290.88 230.912H296.104C297.755 230.912 299.34 231.569 300.508 232.738C301.676 233.907 302.332 235.493 302.332 237.147V249.741H284.652V237.147C284.652 235.493 285.308 233.907 286.476 232.738C287.644 231.569 289.228 230.912 290.88 230.912Z" fill="black"/>
</g>
<path opacity="0.2" d="M213.93 184.782H195.07V222.441H213.93V184.782Z" fill="black"/>
<path d="M119.046 156.538H116.098V184.782H119.046V156.538Z" fill="#98C1D9"/>
<path d="M136.137 156.538H133.189V184.782H136.137V156.538Z" fill="#98C1D9"/>
<path d="M154.996 156.538H152.048V184.782H154.996V156.538Z" fill="#98C1D9"/>
<path d="M173.266 156.538H170.318V184.782H173.266V156.538Z" fill="#98C1D9"/>
<path d="M193.305 156.538H190.357V184.782H193.305V156.538Z" fill="#98C1D9"/>
<path d="M220.411 156.538H217.463V184.782H220.411V156.538Z" fill="#98C1D9"/>
<path d="M238.682 156.538H235.734V184.782H238.682V156.538Z" fill="#98C1D9"/>
<path d="M259.31 156.538H256.362V184.782H259.31V156.538Z" fill="#98C1D9"/>
<path d="M276.991 156.538H274.042V184.782H276.991V156.538Z" fill="#98C1D9"/>
<path d="M295.85 156.538H292.902V184.782H295.85V156.538Z" fill="#98C1D9"/>
<path d="M295.846 158.421H116.098L105.493 149.006H305.866L295.846 158.421Z" fill="#98C1D9"/>
<path d="M123.169 158.421H116.098V162.187H123.169V158.421Z" fill="#98C1D9"/>
<path d="M138.495 158.421H131.424V162.187H138.495V158.421Z" fill="#98C1D9"/>
<path d="M156.761 158.421H149.69V162.187H156.761V158.421Z" fill="#98C1D9"/>
<path d="M175.621 158.421H168.55V162.187H175.621V158.421Z" fill="#98C1D9"/>
<path d="M195.66 158.421H188.589V162.187H195.66V158.421Z" fill="#98C1D9"/>
<path d="M222.18 158.421H215.109V162.187H222.18V158.421Z" fill="#98C1D9"/>
<path d="M241.04 158.421H233.969V162.187H241.04V158.421Z" fill="#98C1D9"/>
<path d="M261.664 158.421H254.593V162.187H261.664V158.421Z" fill="#98C1D9"/>
<path d="M279.345 158.421H272.274V162.187H279.345V158.421Z" fill="#98C1D9"/>
<path d="M295.846 158.421H288.775V162.187H295.846V158.421Z" fill="#98C1D9"/>
<path d="M307.045 149.006H104.903L102.545 142.418H308.814L307.045 149.006Z" fill="#98C1D9"/>
<path opacity="0.2" d="M307.045 149.006H104.903L102.545 142.418H308.814L307.045 149.006Z" fill="black"/>
<path d="M204.5 147.123C207.103 147.123 209.213 143.751 209.213 139.591C209.213 135.432 207.103 132.06 204.5 132.06C201.897 132.06 199.787 135.432 199.787 139.591C199.787 143.751 201.897 147.123 204.5 147.123Z" fill="#98C1D9"/>
<path opacity="0.2" d="M204.5 147.123C207.103 147.123 209.213 143.751 209.213 139.591C209.213 135.432 207.103 132.06 204.5 132.06C201.897 132.06 199.787 135.432 199.787 139.591C199.787 143.751 201.897 147.123 204.5 147.123Z" fill="black"/>
<path d="M204.5 144.297C206.128 144.297 207.448 142.19 207.448 139.591C207.448 136.993 206.128 134.886 204.5 134.886C202.872 134.886 201.552 136.993 201.552 139.591C201.552 142.19 202.872 144.297 204.5 144.297Z" fill="#98C1D9"/>
<path d="M273.499 248.204L253.285 232.674C253.285 232.674 251.653 226.203 251.001 221.672C250.35 217.141 249.37 197.73 249.37 197.73C249.833 196.049 250.141 194.329 250.287 192.592C250.487 192.551 250.702 192.501 250.889 192.447C252.4 192.061 253.801 191.33 254.982 190.311C256.163 189.292 257.091 188.013 257.695 186.573C259.771 181.403 257.089 175.292 253.692 171.194C250.296 167.096 246.023 163.804 243.789 158.724C241.032 152.464 241.974 144.899 240.567 138.049C240.432 137.089 240.075 136.174 239.525 135.377C238.653 134.292 237.286 134.055 236.066 133.622C232.212 132.255 229.322 128.506 227.068 124.594C223.418 118.255 219.639 108.616 212.119 108.068C209.325 107.864 206.406 108.808 203.582 108.799C199.202 108.799 194.863 108.853 190.519 109.456C188.966 109.668 187.355 109.959 186.06 110.986C181.613 114.506 183.626 123.813 179.341 127.612C178.067 128.738 176.435 129.142 174.994 129.915C169.563 132.824 167.15 140.585 167.47 147.568C167.619 150.839 168.3 154.248 170.231 156.638C171.759 158.55 173.939 159.647 175.363 161.663C177.664 164.918 177.352 169.232 177.103 173.622C174.031 174.91 171.564 176.39 170.788 177.982C168.18 183.319 168.504 201.6 168.504 201.6C168.504 201.6 169.484 231.527 161.985 235.268L133.944 254.68C133.944 254.68 114.055 237.371 109.164 247.563C105.817 254.534 118.029 258.479 126.08 260.274C121.002 263.882 118.191 270.549 120.574 275.068C124.311 282.184 134.758 287.039 134.758 287.039C134.758 287.039 174.599 288.963 193.015 284.832H193.318C201.137 286.249 212.356 287.741 221.354 286.843C221.524 287.259 221.645 287.525 221.645 287.525C221.645 287.525 279.362 292.38 289.788 272.64C295.14 262.519 289.555 257.843 282.845 255.69C290.357 255.091 298.911 252.988 299.895 246.595C301.701 234.94 273.499 248.204 273.499 248.204ZM267.685 254.393C257.126 258.246 248.552 258.462 243.988 258.171C241.742 253.279 232.395 232.072 232.15 217.881C232.208 214.714 232.773 211.945 234.035 209.867C236.755 205.39 237.556 201.882 237.465 199.214C237.465 199.014 237.465 198.823 237.465 198.632C237.478 197.816 237.398 197.002 237.228 196.204C237.677 197.301 237.811 198.502 237.615 199.671C236.635 204.688 239.246 237.201 239.246 237.201C239.246 237.201 241.364 244.479 245.765 246.582L267.685 254.393ZM164.273 252.094L174.379 245.622C174.379 245.622 179.109 243.365 179.586 237.849L182.908 211.567C183.136 212.694 183.436 213.804 183.805 214.892C184.395 216.617 184.636 219.145 184.681 222.154C184.569 236.806 179.586 261.147 179.586 261.147H179.649L179.611 261.322L179.258 261.343C171.058 261.093 151.949 260.378 141.248 258.894L164.273 252.094ZM146.563 267.415V267.474H144.072L146.563 267.415Z" fill="url(#paint0_linear)"/>
<path d="M226.308 127.238C228.488 131.054 231.291 134.72 235.007 136.042C236.186 136.457 237.498 136.694 238.329 137.75C238.86 138.53 239.204 139.422 239.334 140.356C240.691 147.036 239.782 154.414 242.448 160.516C244.607 165.458 248.738 168.679 252.023 172.665C255.307 176.652 257.886 182.612 255.893 187.65C255.317 189.046 254.427 190.29 253.29 191.283C252.154 192.277 250.804 192.994 249.345 193.378C246.596 194.122 243.727 193.794 240.936 193.316C237.257 192.663 233.512 191.653 230.448 189.159C225.145 184.849 222.903 177.105 220.129 170.221C218.825 166.996 217.094 163.617 214.229 162.461C210.944 161.139 207.257 163.346 205.127 166.584C202.997 169.822 202.05 173.892 201.02 177.807C199.858 182.226 198.384 186.819 195.328 189.708C194.002 191.002 192.331 191.885 190.515 192.248C188.699 192.612 186.817 192.441 185.096 191.757C181.692 190.335 178.997 186.744 178.216 182.575C177.008 176.149 179.902 168.442 176.352 163.363C174.973 161.397 172.868 160.325 171.369 158.462C169.521 156.13 168.844 152.809 168.699 149.621C168.388 142.813 170.721 135.227 175.97 132.409C177.373 131.656 178.939 131.262 180.172 130.164C184.324 126.473 182.368 117.399 186.666 113.953C187.912 112.952 189.473 112.673 190.976 112.461C195.186 111.875 199.368 111.809 203.603 111.821C206.335 111.821 209.155 110.911 211.858 111.11C219.129 111.659 222.77 121.057 226.308 127.238Z" fill="#965D7B"/>
<path d="M148.357 264.842L149.947 283.701L261.179 283.04L259.061 262.452L221.454 258.071L155.507 262.053L148.357 264.842Z" fill="#575988"/>
<path opacity="0.05" d="M148.357 264.842L149.947 283.701L261.179 283.04L259.061 262.452L221.454 258.071L155.507 262.053L148.357 264.842Z" fill="black"/>
<path d="M221.549 278.027L184.519 281.498C184.519 281.498 209.89 287.966 224.701 284.823L221.549 278.027Z" fill="#F7C4A7"/>
<path opacity="0.1" d="M221.549 278.027L184.519 281.498C184.519 281.498 209.89 287.966 224.701 284.823L221.549 278.027Z" fill="black"/>
<path d="M193.343 145.211C193.343 145.211 200.593 164.298 189.876 172.815C179.159 181.332 187.986 205.154 187.986 205.154L229.273 203.262C229.273 203.262 233.371 176.448 231.162 170.766C231.162 170.766 221.392 173.605 219.187 167.611C216.982 161.617 215.404 145.211 215.404 145.211H193.343Z" fill="#F7C4A7"/>
<path d="M183.888 260.673C183.888 260.673 149.063 259.884 138.823 257.348C128.584 254.813 119.756 266.971 123.381 273.912C127.006 280.854 137.084 285.584 137.084 285.584C137.084 285.584 188.925 288.107 200.115 281.012C200.115 281.012 204.371 268.866 200.115 266.501H146.073L185.935 265.711L183.888 260.673Z" fill="#575988"/>
<path d="M239.201 257.049C239.201 257.049 250.86 259.572 266.934 253.262C266.934 253.262 297.029 252.314 286.948 271.551C276.866 290.788 221.08 286.062 221.08 286.062C221.08 286.062 217.758 278.962 221.08 277.071C224.402 275.18 253.227 263.034 262.188 263.662L237.274 268.55L239.201 257.049Z" fill="#575988"/>
<path opacity="0.1" d="M216.832 154.393C216.23 149.9 215.877 146.238 215.877 146.238H193.816C194.835 149.13 195.542 152.123 195.926 155.166C199.019 157.334 202.735 158.432 206.509 158.293C210.282 158.153 213.907 156.784 216.832 154.393Z" fill="black"/>
<path d="M205.397 157.274C214.969 157.274 222.728 149.506 222.728 139.924C222.728 130.342 214.969 122.574 205.397 122.574C195.825 122.574 188.065 130.342 188.065 139.924C188.065 149.506 195.825 157.274 205.397 157.274Z" fill="#F7C4A7"/>
<path d="M195.236 170.134C195.236 170.134 174.437 174.079 171.917 179.279C169.397 184.479 169.712 202.31 169.712 202.31C169.712 202.31 170.659 231.494 163.409 235.118L136.307 254.048C136.307 254.048 117.082 237.168 112.357 247.106C107.631 257.045 135.049 260.673 135.049 260.673L165.618 251.529L175.388 245.219C175.388 245.219 179.956 243.012 180.429 237.646L184.528 205.149L200.917 200.419H227.379L230.925 190.285C230.925 190.285 237.465 195.531 236.518 200.419C235.572 205.307 238.092 236.997 238.092 236.997C238.092 236.997 240.139 244.097 244.395 246.142L268.981 255.004C268.981 255.004 294.982 257.527 296.714 246.171C298.445 234.815 271.186 247.746 271.186 247.746L251.645 232.604C251.645 232.604 250.071 226.294 249.44 221.876C248.809 217.457 247.866 198.532 247.866 198.532C247.866 198.532 253.854 178.655 236.522 175.189L214.146 168.247L195.236 170.134Z" fill="#F7C4A7"/>
<path opacity="0.1" d="M181.289 174.154L184.519 195.527C184.519 195.527 181.197 205.465 184.519 215.246C187.841 225.026 180.417 261.463 180.417 261.463C180.417 261.463 219.336 273.933 243.116 259.572C243.116 259.572 225.627 222.661 233.03 210.358C240.434 198.054 233.151 193.241 233.151 193.241L234.313 170.625L228.957 169.049L225.805 191.408C225.805 191.408 204.06 206.55 187.986 193.299L184.519 169.008L181.289 174.154Z" fill="black"/>
<path opacity="0.07" d="M203.769 199.559C202.086 196.866 199.461 194.897 196.406 194.037C193.351 193.177 190.086 193.487 187.247 194.907C192.525 198.86 198.342 199.916 203.769 199.559Z" fill="white"/>
<path opacity="0.07" d="M212.701 197.189C214.384 194.496 217.009 192.528 220.064 191.668C223.119 190.808 226.384 191.118 229.223 192.538C223.949 196.491 218.128 197.551 212.701 197.189Z" fill="white"/>
<path opacity="0.1" d="M181.289 174.154L184.519 194.421C184.519 194.421 181.197 204.36 184.519 214.14C187.841 223.921 180.417 260.357 180.417 260.357C180.417 260.357 219.336 272.827 243.116 258.466C243.116 258.466 225.627 221.556 233.03 209.252C240.434 196.948 233.151 192.135 233.151 192.135L234.288 169.502L228.932 167.927L225.78 190.327C225.78 190.327 204.035 205.469 187.961 192.218L184.494 167.927L181.289 174.154Z" fill="black"/>
<path d="M181.131 173.996L184.519 194.737C184.519 194.737 181.197 204.676 184.519 214.456C187.841 224.237 180.417 260.673 180.417 260.673C180.417 260.673 219.336 273.143 243.116 258.782C243.116 258.782 225.627 221.871 233.03 209.568C240.434 197.264 233.151 192.451 233.151 192.451L234.288 169.818L228.932 168.243L225.78 190.643C225.78 190.643 204.035 205.785 187.961 192.534L184.494 168.243L181.131 173.996Z" fill="#FC6681"/>
<path d="M197.125 268.405L205.33 267.299C205.33 267.299 214.785 255.153 221.562 264.46C221.562 264.46 224.398 270.454 227.865 271.559C230.236 272.277 232.66 272.803 235.115 273.135L221.092 277.079C221.092 277.079 214.947 280.708 208.486 279.76C204.683 279.18 200.797 279.505 197.142 280.708L197.125 268.405Z" fill="#F7C4A7"/>
<path opacity="0.1" d="M188.065 216.9C188.065 216.9 202.876 219.107 205.397 215.167L188.065 216.9Z" fill="black"/>
<path opacity="0.1" d="M216.126 214.377C216.126 214.377 218.962 217.216 230.307 215.167L216.126 214.377Z" fill="black"/>
<path opacity="0.1" d="M187.276 170.367C187.276 170.367 198.147 171.942 200.198 170.999L187.276 170.367Z" fill="black"/>
<path opacity="0.1" d="M211.231 170.367C211.231 170.367 222.102 171.942 224.153 170.999L211.231 170.367Z" fill="black"/>
<path opacity="0.1" d="M198.309 267.22C198.309 267.22 201.303 281.352 198.309 281.851C195.315 282.35 191.059 279.524 191.059 279.208C191.059 278.892 192.948 269.901 192.948 269.901L198.309 267.22Z" fill="black"/>
<path d="M197.993 267.22C197.993 267.22 200.987 281.352 197.993 281.851C195 282.35 190.744 279.524 190.744 279.208C190.744 278.892 192.633 269.901 192.633 269.901L197.993 267.22Z" fill="#575988"/>
<path opacity="0.1" d="M183.365 168.301C182.044 171.373 181.575 174.997 182.979 178.032C184.05 180.347 186.143 182.222 186.546 184.74C187.052 187.899 184.714 191.113 185.586 194.188C185.919 195.369 186.695 196.366 187.484 197.302C189.884 200.141 193.073 202.888 196.777 202.668C197.362 196.94 192.417 191.383 194.036 185.859C194.618 183.88 195.98 182.234 196.802 180.347C198.168 177.217 197.973 173.642 197.478 170.263C196.76 165.362 194.941 159.348 190.087 157.053C187.853 155.997 184.689 155.923 183.892 158.787C183.477 160.316 184.474 161.754 184.611 163.251C184.785 165.15 184.1 166.593 183.365 168.301Z" fill="black"/>
<path d="M183.365 167.827C182.044 170.899 181.575 174.523 182.979 177.558C184.05 179.873 186.143 181.748 186.546 184.267C187.052 187.426 184.714 190.639 185.586 193.715C185.919 194.895 186.695 195.893 187.484 196.828C189.884 199.667 193.073 202.414 196.777 202.194C197.362 196.466 192.417 190.909 194.036 185.385C194.618 183.406 195.98 181.76 196.802 179.873C198.168 176.743 197.973 173.168 197.478 169.789C196.76 164.888 194.941 158.874 190.087 156.579C187.853 155.524 184.689 155.449 183.892 158.313C183.477 159.842 184.474 161.281 184.611 162.777C184.785 164.681 184.1 166.123 183.365 167.827Z" fill="#965D7B"/>
<path opacity="0.1" d="M184.598 131.407C184.598 131.407 207.606 128.252 208.233 132.982C208.86 137.713 229.19 145.452 229.19 145.452L224.149 132.982L214.852 117.524C214.852 117.524 197.827 116.277 197.047 117.524C196.266 118.771 187.276 122.886 187.276 122.886L184.598 131.407Z" fill="black"/>
<path d="M184.598 131.091C184.598 131.091 207.606 127.936 208.233 132.666C208.86 137.397 229.19 145.136 229.19 145.136L224.149 132.666L214.852 117.212C214.852 117.212 197.827 115.965 197.047 117.212C196.266 118.459 187.276 122.574 187.276 122.574L184.598 131.091Z" fill="#965D7B"/>
<path opacity="0.1" d="M224.634 164.805C225.753 166.146 226.544 167.731 226.943 169.432C227.325 171.057 227.338 172.757 227.703 174.386C228.479 177.857 230.771 180.775 233.167 183.402C233.943 184.354 234.889 185.152 235.958 185.755C237.054 186.295 238.449 186.407 239.466 185.755C238.503 184.965 237.98 183.755 237.635 182.554C237.15 180.879 236.934 179.138 236.996 177.396C237.1 174.486 237.951 171.414 236.742 168.762C236.045 167.233 234.745 166.069 233.421 165.021C232.5 164.272 231.507 163.618 230.456 163.068C228.5 162.091 226.254 161.663 224.095 161.451C221.279 161.16 223.742 163.733 224.634 164.805Z" fill="black"/>
<path d="M224.634 164.327C225.754 165.671 226.545 167.258 226.943 168.962C227.325 170.587 227.338 172.287 227.703 173.917C228.479 177.387 230.771 180.305 233.167 182.932C233.943 183.884 234.889 184.682 235.958 185.285C237.054 185.825 238.449 185.938 239.466 185.285C238.503 184.495 237.98 183.286 237.635 182.084C237.15 180.41 236.934 178.668 236.996 176.926C237.1 174.016 237.951 170.945 236.742 168.293C236.045 166.763 234.745 165.599 233.421 164.552C232.5 163.803 231.507 163.148 230.456 162.598C228.5 161.621 226.254 161.193 224.095 160.981C221.279 160.686 223.742 163.259 224.634 164.327Z" fill="#965D7B"/>
<path opacity="0.1" d="M214.333 68.7545H211.476C211.746 68.7668 212.016 68.7241 212.269 68.6291C212.523 68.5341 212.754 68.3887 212.95 68.2016C213.145 68.0146 213.301 67.7897 213.407 67.5408C213.514 67.2918 213.568 67.0238 213.568 66.753C213.568 66.4823 213.514 66.2143 213.407 65.9653C213.301 65.7163 213.145 65.4915 212.95 65.3045C212.754 65.1174 212.523 64.972 212.269 64.877C212.016 64.7819 211.746 64.7393 211.476 64.7516H188.335C187.821 64.7751 187.335 64.9962 186.979 65.369C186.623 65.7418 186.425 66.2375 186.425 66.753C186.425 67.2686 186.623 67.7643 186.979 68.1371C187.335 68.5099 187.821 68.731 188.335 68.7545H191.192C190.922 68.7421 190.652 68.7847 190.398 68.8798C190.145 68.9748 189.914 69.1202 189.718 69.3073C189.523 69.4943 189.367 69.7191 189.261 69.9681C189.154 70.2171 189.099 70.4851 189.099 70.7558C189.099 71.0266 189.154 71.2946 189.261 71.5436C189.367 71.7926 189.523 72.0174 189.718 72.2044C189.914 72.3915 190.145 72.5369 190.398 72.6319C190.652 72.727 190.922 72.7696 191.192 72.7573H187.193C186.923 72.7449 186.653 72.7876 186.4 72.8826C186.147 72.9776 185.915 73.123 185.719 73.3101C185.524 73.4972 185.368 73.722 185.262 73.9709C185.156 74.2199 185.101 74.4879 185.101 74.7587C185.101 75.0294 185.156 75.2974 185.262 75.5464C185.368 75.7954 185.524 76.0202 185.719 76.2072C185.915 76.3943 186.147 76.5397 186.4 76.6348C186.653 76.7298 186.923 76.7724 187.193 76.7601H210.334C210.604 76.7724 210.874 76.7298 211.127 76.6348C211.381 76.5397 211.612 76.3943 211.808 76.2072C212.003 76.0202 212.159 75.7954 212.265 75.5464C212.372 75.2974 212.426 75.0294 212.426 74.7587C212.426 74.4879 212.372 74.2199 212.265 73.9709C212.159 73.722 212.003 73.4972 211.808 73.3101C211.612 73.123 211.381 72.9776 211.127 72.8826C210.874 72.7876 210.604 72.7449 210.334 72.7573H214.333C214.603 72.7696 214.873 72.727 215.126 72.6319C215.379 72.5369 215.611 72.3915 215.806 72.2044C216.002 72.0174 216.158 71.7926 216.264 71.5436C216.37 71.2946 216.425 71.0266 216.425 70.7558C216.425 70.4851 216.37 70.2171 216.264 69.9681C216.158 69.7191 216.002 69.4943 215.806 69.3073C215.611 69.1202 215.379 68.9748 215.126 68.8798C214.873 68.7847 214.603 68.7421 214.333 68.7545Z" fill="#252223"/>
<path opacity="0.1" d="M326.444 68.7545H323.587C323.858 68.7668 324.128 68.7241 324.381 68.6291C324.634 68.5341 324.866 68.3887 325.061 68.2016C325.257 68.0146 325.412 67.7897 325.519 67.5408C325.625 67.2918 325.68 67.0238 325.68 66.753C325.68 66.4823 325.625 66.2143 325.519 65.9653C325.412 65.7163 325.257 65.4915 325.061 65.3045C324.866 65.1174 324.634 64.972 324.381 64.877C324.128 64.7819 323.858 64.7393 323.587 64.7516H300.447C299.932 64.7751 299.447 64.9962 299.091 65.369C298.735 65.7418 298.537 66.2375 298.537 66.753C298.537 67.2686 298.735 67.7643 299.091 68.1371C299.447 68.5099 299.932 68.731 300.447 68.7545H303.304C303.033 68.7421 302.763 68.7847 302.51 68.8798C302.257 68.9748 302.025 69.1202 301.83 69.3073C301.634 69.4943 301.479 69.7191 301.372 69.9681C301.266 70.2171 301.211 70.4851 301.211 70.7558C301.211 71.0266 301.266 71.2946 301.372 71.5436C301.479 71.7926 301.634 72.0174 301.83 72.2044C302.025 72.3915 302.257 72.5369 302.51 72.6319C302.763 72.727 303.033 72.7696 303.304 72.7573H299.305C299.035 72.7449 298.765 72.7876 298.512 72.8826C298.258 72.9776 298.027 73.123 297.831 73.3101C297.636 73.4972 297.48 73.722 297.374 73.9709C297.267 74.2199 297.212 74.4879 297.212 74.7587C297.212 75.0294 297.267 75.2974 297.374 75.5464C297.48 75.7954 297.636 76.0202 297.831 76.2072C298.027 76.3943 298.258 76.5397 298.512 76.6348C298.765 76.7298 299.035 76.7724 299.305 76.7601H322.446C322.716 76.7724 322.986 76.7298 323.239 76.6348C323.492 76.5397 323.724 76.3943 323.919 76.2072C324.115 76.0202 324.271 75.7954 324.377 75.5464C324.483 75.2974 324.538 75.0294 324.538 74.7587C324.538 74.4879 324.483 74.2199 324.377 73.9709C324.271 73.722 324.115 73.4972 323.919 73.3101C323.724 73.123 323.492 72.9776 323.239 72.8826C322.986 72.7876 322.716 72.7449 322.446 72.7573H326.444C326.714 72.7696 326.984 72.727 327.238 72.6319C327.491 72.5369 327.722 72.3915 327.918 72.2044C328.114 72.0174 328.269 71.7926 328.376 71.5436C328.482 71.2946 328.537 71.0266 328.537 70.7558C328.537 70.4851 328.482 70.2171 328.376 69.9681C328.269 69.7191 328.114 69.4943 327.918 69.3073C327.722 69.1202 327.491 68.9748 327.238 68.8798C326.984 68.7847 326.714 68.7421 326.444 68.7545Z" fill="#252223"/>
<path opacity="0.1" d="M87.6879 119.881H84.8312C85.1014 119.893 85.3713 119.85 85.6246 119.755C85.8779 119.66 86.1093 119.515 86.3049 119.328C86.5005 119.141 86.6562 118.916 86.7625 118.667C86.8689 118.418 86.9237 118.15 86.9237 117.879C86.9237 117.609 86.8689 117.341 86.7625 117.092C86.6562 116.843 86.5005 116.618 86.3049 116.431C86.1093 116.244 85.8779 116.098 85.6246 116.003C85.3713 115.908 85.1014 115.866 84.8312 115.878H61.6905C61.176 115.901 60.6903 116.123 60.3345 116.495C59.9787 116.868 59.7802 117.364 59.7802 117.879C59.7802 118.395 59.9787 118.891 60.3345 119.263C60.6903 119.636 61.176 119.857 61.6905 119.881H64.5472C64.0328 119.904 63.5471 120.125 63.1913 120.498C62.8355 120.871 62.637 121.367 62.637 121.882C62.637 122.398 62.8355 122.893 63.1913 123.266C63.5471 123.639 64.0328 123.86 64.5472 123.884H60.5486C60.2784 123.871 60.0085 123.914 59.7552 124.009C59.5019 124.104 59.2704 124.249 59.0748 124.436C58.8793 124.623 58.7236 124.848 58.6172 125.097C58.5109 125.346 58.4561 125.614 58.4561 125.885C58.4561 126.156 58.5109 126.424 58.6172 126.673C58.7236 126.922 58.8793 127.146 59.0748 127.334C59.2704 127.521 59.5019 127.666 59.7552 127.761C60.0085 127.856 60.2784 127.899 60.5486 127.886H83.6893C83.9595 127.899 84.2294 127.856 84.4827 127.761C84.736 127.666 84.9674 127.521 85.163 127.334C85.3586 127.146 85.5143 126.922 85.6206 126.673C85.727 126.424 85.7818 126.156 85.7818 125.885C85.7818 125.614 85.727 125.346 85.6206 125.097C85.5143 124.848 85.3586 124.623 85.163 124.436C84.9674 124.249 84.736 124.104 84.4827 124.009C84.2294 123.914 83.9595 123.871 83.6893 123.884H87.6879C88.2024 123.86 88.6881 123.639 89.0439 123.266C89.3996 122.893 89.5982 122.398 89.5982 121.882C89.5982 121.367 89.3996 120.871 89.0439 120.498C88.6881 120.125 88.2024 119.904 87.6879 119.881Z" fill="#252223"/>
<path d="M327.503 280.621C327.503 280.621 317.259 245.805 329.426 220.18C334.533 209.427 336.227 197.352 333.869 185.68C332.741 180.138 331.108 174.712 328.99 169.469" stroke="#535461" stroke-width="2" stroke-miterlimit="10"/>
<path d="M336.543 153.296C336.543 157.565 328.824 169.922 328.824 169.922C328.824 169.922 321.105 157.548 321.105 153.296C321.081 152.266 321.263 151.242 321.64 150.284C322.017 149.326 322.582 148.453 323.3 147.716C324.019 146.98 324.878 146.394 325.826 145.995C326.775 145.595 327.793 145.389 328.822 145.389C329.85 145.389 330.869 145.595 331.817 145.995C332.765 146.394 333.624 146.98 334.343 147.716C335.062 148.453 335.626 149.326 336.003 150.284C336.381 151.242 336.562 152.266 336.539 153.296H336.543Z" fill="#98C1D9"/>
<path d="M349.315 176.93C346.998 180.513 333.802 186.698 333.802 186.698C333.802 186.698 334.043 172.113 336.36 168.53C337.497 166.866 339.238 165.712 341.212 165.315C343.186 164.918 345.237 165.309 346.927 166.404C348.618 167.5 349.813 169.213 350.259 171.179C350.706 173.145 350.367 175.207 349.315 176.926V176.93Z" fill="#98C1D9"/>
<path d="M348.754 217.32C344.947 219.24 330.439 217.914 330.439 217.914C330.439 217.914 338 205.444 341.808 203.524C342.715 203.043 343.709 202.748 344.731 202.656C345.754 202.565 346.785 202.678 347.763 202.99C348.741 203.302 349.647 203.806 350.428 204.473C351.21 205.139 351.85 205.955 352.313 206.873C352.775 207.791 353.05 208.791 353.121 209.816C353.192 210.842 353.058 211.871 352.727 212.844C352.397 213.816 351.875 214.713 351.194 215.482C350.512 216.251 349.684 216.875 348.759 217.32H348.754Z" fill="#98C1D9"/>
<path d="M341.459 247.784C338.033 250.319 323.504 251.466 323.504 251.466C323.504 251.466 328.853 237.899 332.278 235.36C333.092 234.747 334.02 234.301 335.007 234.048C335.994 233.796 337.022 233.741 338.03 233.888C339.038 234.035 340.007 234.381 340.882 234.904C341.756 235.428 342.518 236.12 343.124 236.94C343.73 237.76 344.168 238.692 344.412 239.682C344.656 240.672 344.702 241.701 344.548 242.709C344.393 243.717 344.04 244.684 343.51 245.555C342.98 246.426 342.283 247.184 341.459 247.784Z" fill="#98C1D9"/>
<path d="M317.596 187.525C320.652 190.497 334.898 193.577 334.898 193.577C334.898 193.577 331.41 179.416 328.354 176.44C326.876 175.069 324.92 174.331 322.906 174.384C320.891 174.438 318.977 175.278 317.573 176.725C316.168 178.172 315.385 180.111 315.39 182.128C315.395 184.146 316.188 186.081 317.6 187.521L317.596 187.525Z" fill="#98C1D9"/>
<path d="M309.515 223.26C313.323 225.18 327.831 223.854 327.831 223.854C327.831 223.854 320.27 211.384 316.462 209.464C315.555 208.983 314.561 208.688 313.538 208.596C312.516 208.504 311.485 208.618 310.507 208.93C309.529 209.242 308.623 209.746 307.841 210.412C307.06 211.079 306.42 211.895 305.957 212.813C305.495 213.73 305.22 214.731 305.149 215.756C305.078 216.781 305.212 217.811 305.542 218.783C305.873 219.756 306.395 220.653 307.076 221.422C307.758 222.19 308.586 222.815 309.511 223.26H309.515Z" fill="#98C1D9"/>
<path d="M306.422 259.073C309.848 261.609 324.376 262.756 324.376 262.756C324.376 262.756 319.028 249.184 315.599 246.649C314.784 246.036 313.857 245.59 312.87 245.338C311.883 245.085 310.855 245.031 309.847 245.178C308.839 245.325 307.869 245.67 306.995 246.194C306.121 246.717 305.359 247.409 304.753 248.229C304.147 249.049 303.709 249.981 303.465 250.971C303.22 251.961 303.174 252.99 303.329 253.998C303.484 255.006 303.836 255.974 304.367 256.845C304.897 257.716 305.594 258.473 306.418 259.073H306.422Z" fill="#98C1D9"/>
<path d="M336.543 153.296C336.543 157.565 328.824 169.922 328.824 169.922C328.824 169.922 321.105 157.548 321.105 153.296C321.081 152.266 321.263 151.242 321.64 150.284C322.017 149.326 322.582 148.453 323.3 147.716C324.019 146.98 324.878 146.394 325.826 145.995C326.775 145.595 327.793 145.389 328.822 145.389C329.85 145.389 330.869 145.595 331.817 145.995C332.765 146.394 333.624 146.98 334.343 147.716C335.062 148.453 335.626 149.326 336.003 150.284C336.381 151.242 336.562 152.266 336.539 153.296H336.543Z" fill="#FC6681"/>
<path d="M349.315 176.93C346.998 180.513 333.802 186.698 333.802 186.698C333.802 186.698 334.043 172.113 336.36 168.53C337.497 166.866 339.238 165.712 341.212 165.315C343.186 164.918 345.237 165.309 346.927 166.404C348.618 167.5 349.813 169.213 350.259 171.179C350.706 173.145 350.367 175.207 349.315 176.926V176.93Z" fill="#FC6681"/>
<path d="M348.754 217.32C344.947 219.24 330.439 217.914 330.439 217.914C330.439 217.914 338 205.444 341.808 203.524C342.715 203.043 343.709 202.748 344.731 202.656C345.754 202.565 346.785 202.678 347.763 202.99C348.741 203.302 349.647 203.806 350.428 204.473C351.21 205.139 351.85 205.955 352.313 206.873C352.775 207.791 353.05 208.791 353.121 209.816C353.192 210.842 353.058 211.871 352.727 212.844C352.397 213.816 351.875 214.713 351.194 215.482C350.512 216.251 349.684 216.875 348.759 217.32H348.754Z" fill="#FC6681"/>
<path d="M341.459 247.784C338.033 250.319 323.504 251.466 323.504 251.466C323.504 251.466 328.853 237.899 332.278 235.36C333.092 234.747 334.02 234.301 335.007 234.048C335.994 233.796 337.022 233.741 338.03 233.888C339.038 234.035 340.007 234.381 340.882 234.904C341.756 235.428 342.518 236.12 343.124 236.94C343.73 237.76 344.168 238.692 344.412 239.682C344.656 240.672 344.702 241.701 344.548 242.709C344.393 243.717 344.04 244.684 343.51 245.555C342.98 246.426 342.283 247.184 341.459 247.784Z" fill="#FC6681"/>
<path d="M317.596 187.525C320.652 190.497 334.898 193.577 334.898 193.577C334.898 193.577 331.41 179.416 328.354 176.44C326.876 175.069 324.92 174.331 322.906 174.384C320.891 174.438 318.977 175.278 317.573 176.725C316.168 178.172 315.385 180.111 315.39 182.128C315.395 184.146 316.188 186.081 317.6 187.521L317.596 187.525Z" fill="#FC6681"/>
<path d="M309.515 223.26C313.323 225.18 327.831 223.854 327.831 223.854C327.831 223.854 320.27 211.384 316.462 209.464C315.555 208.983 314.561 208.688 313.538 208.596C312.516 208.504 311.485 208.618 310.507 208.93C309.529 209.242 308.623 209.746 307.841 210.412C307.06 211.079 306.42 211.895 305.957 212.813C305.495 213.73 305.22 214.731 305.149 215.756C305.078 216.781 305.212 217.811 305.542 218.783C305.873 219.756 306.395 220.653 307.076 221.422C307.758 222.19 308.586 222.815 309.511 223.26H309.515Z" fill="#FC6681"/>
<path d="M306.422 259.073C309.848 261.609 324.376 262.756 324.376 262.756C324.376 262.756 319.028 249.184 315.599 246.649C314.784 246.036 313.857 245.59 312.87 245.338C311.883 245.085 310.855 245.031 309.847 245.178C308.839 245.325 307.869 245.67 306.995 246.194C306.121 246.717 305.359 247.409 304.753 248.229C304.147 249.049 303.709 249.981 303.465 250.971C303.22 251.961 303.174 252.99 303.329 253.998C303.484 255.006 303.836 255.974 304.367 256.845C304.897 257.716 305.594 258.473 306.418 259.073H306.422Z" fill="#FC6681"/>
<path d="M85.8402 279.79C85.8402 279.79 75.5965 244.974 87.7627 219.348C92.87 208.595 94.5641 196.52 92.2056 184.848C91.0779 179.307 89.4447 173.881 87.3267 168.638" stroke="#535461" stroke-width="2" stroke-miterlimit="10"/>
<path d="M94.8797 152.464C94.8797 156.733 87.1606 169.091 87.1606 169.091C87.1606 169.091 79.4415 156.717 79.4415 152.464C79.4177 151.435 79.5996 150.411 79.9767 149.453C80.3538 148.495 80.9184 147.622 81.6374 146.885C82.3563 146.148 83.2151 145.563 84.1633 145.163C85.1114 144.764 86.1298 144.558 87.1585 144.558C88.1873 144.558 89.2057 144.764 90.1538 145.163C91.102 145.563 91.9607 146.148 92.6797 146.885C93.3987 147.622 93.9633 148.495 94.3404 149.453C94.7175 150.411 94.8994 151.435 94.8756 152.464H94.8797Z" fill="#98C1D9"/>
<path d="M107.652 176.099C105.335 179.682 92.1392 185.867 92.1392 185.867C92.1392 185.867 92.38 171.281 94.697 167.698C95.8334 166.034 97.5745 164.881 99.5487 164.484C101.523 164.087 103.574 164.478 105.264 165.573C106.955 166.669 108.15 168.382 108.596 170.348C109.043 172.313 108.704 174.376 107.652 176.095V176.099Z" fill="#98C1D9"/>
<path d="M107.092 216.489C103.284 218.409 88.7759 217.083 88.7759 217.083C88.7759 217.083 96.3372 204.613 100.145 202.693C101.967 201.818 104.059 201.693 105.971 202.345C107.884 202.997 109.465 204.374 110.375 206.18C111.285 207.986 111.451 210.077 110.838 212.005C110.225 213.932 108.881 215.542 107.096 216.489H107.092Z" fill="#98C1D9"/>
<path d="M99.796 246.952C96.3704 249.488 81.8416 250.635 81.8416 250.635C81.8416 250.635 87.1897 237.068 90.6153 234.528C91.4296 233.915 92.357 233.47 93.3442 233.217C94.3314 232.965 95.3587 232.91 96.3669 233.057C97.3752 233.204 98.3444 233.549 99.2187 234.073C100.093 234.597 100.855 235.288 101.461 236.108C102.067 236.928 102.505 237.86 102.749 238.85C102.993 239.841 103.04 240.869 102.885 241.877C102.73 242.886 102.377 243.853 101.847 244.724C101.317 245.595 100.62 246.352 99.796 246.952Z" fill="#98C1D9"/>
<path d="M75.9328 186.694C78.9889 189.666 93.2354 192.746 93.2354 192.746C93.2354 192.746 89.7475 178.584 86.6914 175.608C85.2128 174.238 83.2572 173.5 81.2426 173.553C79.228 173.606 77.314 174.446 75.9097 175.893C74.5054 177.34 73.7221 179.28 73.7272 181.297C73.7323 183.315 74.5254 185.25 75.937 186.69L75.9328 186.694Z" fill="#98C1D9"/>
<path d="M67.8524 222.428C71.6601 224.349 86.1681 223.023 86.1681 223.023C86.1681 223.023 78.6068 210.553 74.7992 208.633C72.9773 207.758 70.8854 207.633 68.9727 208.285C67.06 208.937 65.4789 210.314 64.569 212.12C63.659 213.926 63.4928 216.017 64.1059 217.945C64.719 219.872 66.0626 221.482 67.8483 222.428H67.8524Z" fill="#98C1D9"/>
<path d="M64.759 258.242C68.1846 260.777 82.7135 261.924 82.7135 261.924C82.7135 261.924 77.3653 248.353 73.9356 245.818C73.1213 245.205 72.1938 244.759 71.2067 244.506C70.2195 244.254 69.1922 244.199 68.184 244.346C67.1757 244.493 66.2065 244.839 65.3322 245.362C64.4579 245.886 63.6958 246.578 63.0899 247.398C62.4839 248.218 62.0462 249.15 61.8018 250.14C61.5575 251.13 61.5113 252.159 61.6661 253.167C61.8209 254.175 62.1735 255.142 62.7037 256.013C63.2338 256.884 63.9309 257.642 64.7549 258.242H64.759Z" fill="#98C1D9"/>
<path d="M94.8797 152.464C94.8797 156.733 87.1606 169.091 87.1606 169.091C87.1606 169.091 79.4415 156.717 79.4415 152.464C79.4177 151.435 79.5996 150.411 79.9767 149.453C80.3538 148.495 80.9184 147.622 81.6374 146.885C82.3563 146.148 83.2151 145.563 84.1633 145.163C85.1114 144.764 86.1298 144.558 87.1585 144.558C88.1873 144.558 89.2057 144.764 90.1538 145.163C91.102 145.563 91.9607 146.148 92.6797 146.885C93.3987 147.622 93.9633 148.495 94.3404 149.453C94.7175 150.411 94.8994 151.435 94.8756 152.464H94.8797Z" fill="#FC6681"/>
<path d="M107.652 176.099C105.335 179.682 92.1392 185.867 92.1392 185.867C92.1392 185.867 92.38 171.281 94.697 167.698C95.8334 166.034 97.5745 164.881 99.5487 164.484C101.523 164.087 103.574 164.478 105.264 165.573C106.955 166.669 108.15 168.382 108.596 170.348C109.043 172.313 108.704 174.376 107.652 176.095V176.099Z" fill="#FC6681"/>
<path d="M107.092 216.489C103.284 218.409 88.7759 217.083 88.7759 217.083C88.7759 217.083 96.3372 204.613 100.145 202.693C101.967 201.818 104.059 201.693 105.971 202.345C107.884 202.997 109.465 204.374 110.375 206.18C111.285 207.986 111.451 210.077 110.838 212.005C110.225 213.932 108.881 215.542 107.096 216.489H107.092Z" fill="#FC6681"/>
<path d="M99.796 246.952C96.3704 249.488 81.8416 250.635 81.8416 250.635C81.8416 250.635 87.1897 237.068 90.6153 234.528C91.4296 233.915 92.357 233.47 93.3442 233.217C94.3314 232.965 95.3587 232.91 96.3669 233.057C97.3752 233.204 98.3444 233.549 99.2187 234.073C100.093 234.597 100.855 235.288 101.461 236.108C102.067 236.928 102.505 237.86 102.749 238.85C102.993 239.841 103.04 240.869 102.885 241.877C102.73 242.886 102.377 243.853 101.847 244.724C101.317 245.595 100.62 246.352 99.796 246.952Z" fill="#FC6681"/>
<path d="M75.9328 186.694C78.9889 189.666 93.2354 192.746 93.2354 192.746C93.2354 192.746 89.7475 178.584 86.6914 175.608C85.2128 174.238 83.2572 173.5 81.2426 173.553C79.228 173.606 77.314 174.446 75.9097 175.893C74.5054 177.34 73.7221 179.28 73.7272 181.297C73.7323 183.315 74.5254 185.25 75.937 186.69L75.9328 186.694Z" fill="#FC6681"/>
<path d="M67.8524 222.428C71.6601 224.349 86.1681 223.023 86.1681 223.023C86.1681 223.023 78.6068 210.553 74.7992 208.633C72.9773 207.758 70.8854 207.633 68.9727 208.285C67.06 208.937 65.4789 210.314 64.569 212.12C63.659 213.926 63.4928 216.017 64.1059 217.945C64.719 219.872 66.0626 221.482 67.8483 222.428H67.8524Z" fill="#FC6681"/>
<path d="M64.759 258.242C68.1846 260.777 82.7135 261.924 82.7135 261.924C82.7135 261.924 77.3653 248.353 73.9356 245.818C73.1213 245.205 72.1938 244.759 71.2067 244.506C70.2195 244.254 69.1922 244.199 68.184 244.346C67.1757 244.493 66.2065 244.839 65.3322 245.362C64.4579 245.886 63.6958 246.578 63.0899 247.398C62.4839 248.218 62.0462 249.15 61.8018 250.14C61.5575 251.13 61.5113 252.159 61.6661 253.167C61.8209 254.175 62.1735 255.142 62.7037 256.013C63.2338 256.884 63.9309 257.642 64.7549 258.242H64.759Z" fill="#FC6681"/>
</g>
<defs>
<linearGradient id="paint0_linear" x1="204.297" y1="288.045" x2="204.297" y2="108.063" gradientUnits="userSpaceOnUse">
<stop stop-color="#808080" stop-opacity="0.25"/>
<stop offset="0.54" stop-color="#808080" stop-opacity="0.12"/>
<stop offset="1" stop-color="#808080" stop-opacity="0.1"/>
</linearGradient>
<clipPath id="clip0">
<rect width="409" height="288.04" fill="white"/>
</clipPath>
</defs>
</svg>
